<svg width="90" height="90" viewBox="0 0 90 90" fill="none" xmlns="http://www.w3.org/2000/svg">
<path d="M7 54.4107C7 57.7426 10.1741 61.0372 12.372 63.2351C14.0412 64.9043 16.6066 66.4643 18.994 66.4643C25.1986 66.4643 22.6568 56.3474 22.5357 52.5952C22.2735 44.4675 20.125 36.5371 20.125 28.4286C20.125 26.1832 21.3044 24.8158 22.8631 23.3988C23.5936 22.7347 25.177 22 26.1518 22C27.5587 22 28.7268 22.4587 30.0357 22.5357C32.0576 22.6546 34.0522 24.654 35.3333 26.0774C36.0068 26.8256 36.3736 28.1241 37.0149 28.9792C37.7611 29.9742 38.875 31.4475 38.875 32.7143" stroke="white" stroke-width="2" stroke-linecap="round"/>
<path d="M16.1071 43.6964C19.9841 43.6964 23.6083 42.8928 27.3571 42.8928" stroke="white" stroke-width="2" stroke-linecap="round"/>
<path d="M38.3393 39.6786C37.4999 39.7835 36.0051 41.2092 35.3929 41.8214C34.3814 42.8329 34.0676 44.6377 33.7708 45.9732C32.9958 49.4607 32.7143 52.8431 32.7143 56.4941C32.7143 57.4916 33.3872 59.6046 33.994 60.3631C34.7325 61.2862 34.7701 62.6982 35.7946 63.5179C37.841 65.155 39.8274 65.8691 42.0893 67" stroke="white" stroke-width="2" stroke-linecap="round"/>
<path d="M75.0357 41.0178C75.0794 41.3673 78.5628 42.4318 79.1726 43.0416C80.1713 44.0403 81.4195 45.6307 82.0595 46.9107C83.5338 49.8591 83.505 52.3329 83.3393 55.4821C83.1938 58.2468 81.5707 60.377 80.3333 62.7143C79.864 63.6008 79.0171 64.1323 78.5179 65.0059C78.265 65.4484 76.7303 67.5685 77.7143 65.9285" stroke="white" stroke-width="2" stroke-linecap="round"/>
<path d="M37 58.1606C38.0748 58.1606 39.7456 55.7732 40.4822 54.9315C41.2222 54.0857 41.6303 52.8062 42.2381 51.8511C42.8744 50.8513 43.1808 49.664 43.8155 48.6666C44.24 47.9995 44.9091 47.0042 45.0506 46.2261C45.1194 45.8476 45.3991 45.0128 45.7054 44.7678C45.9964 44.5349 45.7566 44.0162 45.8988 43.6963C46.0868 43.2733 46.1072 42.9859 46.1072 42.5207C46.1072 41.6328 46.1072 44.2965 46.1072 45.1844C46.1072 48.6666 46.1072 52.1487 46.1072 55.6309C46.1072 57.3044 47.8815 59.5214 49.7083 58.0267C52.1127 56.0595 52.1075 54.1351 52.9375 51.4791C53.5367 49.5617 53.1546 47.5998 54.0089 45.7201C54.3504 44.969 54.4107 43.8643 54.4107 43.0267C54.4107 42.0884 54.8351 43.3835 54.8869 43.6368C55.0765 44.5635 55.2143 45.4292 55.2143 46.3749C55.2143 49.6341 54.5146 55.0347 58.1607 56.7618C59.3115 57.3069 59.7037 56.9987 60.7054 56.5535C61.3728 56.2569 63.0004 54.3959 63.3691 53.7112C64.1679 52.2277 64.8226 50.376 65.5119 48.8005C65.9277 47.8501 65.7162 46.0257 66.3304 45.2886C66.6937 44.8526 66.9154 43.2118 67.2084 44.3511C67.5221 45.5712 67.5357 46.7363 67.5357 47.9821C67.5357 49.9014 68.0714 51.7329 68.0714 53.6071C68.0714 55.3698 69.8578 57.0892 71.5536 57.0892C73.8712 57.0892 74.357 56.3038 75.3036 54.4106" stroke="white" stroke-width="2" stroke-linecap="round"/>
<path d="M46.375 35.125C41.8444 35.125 44.7133 41.9828 47.6547 39.9464C49.2533 38.8397 49.5013 35.3929 47.1786 35.3929C45.8114 35.3929 45.353 36.1279 45.0952 37.4167C44.9471 38.1572 45.5674 38.6182 46.1666 38.875C47.3931 39.4006 47.8574 39.4575 48.3541 37.9673C48.8046 36.6159 46.9235 35.4776 46.6428 36.3899C46.5607 36.657 46.0949 38.2258 46.5387 38.3244C47.2612 38.485 47.9524 37.6677 47.9524 37C47.9524 34.7846 44.9084 37.0313 46.2708 38.6964C46.8422 39.3948 49.229 35.7037 46.2411 36.6131C44.1574 37.2473 45.4204 39.4845 46.4791 38.1905C47.4929 36.9514 44.7976 36.4373 44.7976 38.1012C44.7976 40.0038 46.7275 39.6205 46.3601 37.9673C46.2459 37.4535 46.1071 38.5223 46.1071 38.6071C46.1071 39.1892 46.5199 39.2878 46.9107 39.6786" stroke="#FFBB38" stroke-width="2" stroke-linecap="round"/>
<path d="M55.2143 35.6608C53.7617 35.8424 52.4665 38.2148 53.2053 39.5447C54.4234 41.7372 57.0893 39.9488 57.0893 37.9525C57.0893 35.8697 55.0287 34.2725 53.6071 36.4048C52.9686 37.3626 52.6913 38.8137 53.6071 39.6786C54.7465 40.7547 56.5536 38.5623 56.5536 37.4763C56.5536 34.7412 52.58 36.8868 54.2619 39.5298C54.968 40.6395 56.085 39.0417 56.2708 38.2054C56.4511 37.3943 55.7618 35.9466 54.8274 36.881C54.0417 37.6667 54.2818 40.5589 55.6905 39.2025C56.2072 38.7049 56.6471 36.8007 55.4821 36.7322C54.775 36.6906 54.9464 37.2186 54.9464 37.7888C54.9464 38.5544 55.35 38.3645 55.6905 38.8751C56.0697 39.4439 56.789 37.1502 56.0178 37.5358" stroke="#FF5959" stroke-width="2" stroke-linecap="round"/>
<path d="M65.9286 37.2678C65.7919 36.1742 64.6382 37.8544 64.5298 38.0714C64.1927 38.7456 64.1927 39.8079 64.5298 40.4821C65.5386 42.4997 69.0331 40.3255 67.0298 38.0416C65.9965 36.8637 64.9033 36.0255 64.1131 37.8035C63.8287 38.4435 64.252 39.9298 65.1845 39.619C66.3397 39.2339 67.48 36.9975 66.5238 36.1369C65.2011 34.9464 63.9183 36.7199 64.0685 38.0714C64.2842 40.0132 66.2487 40.0688 66.9851 38.4732C67.3469 37.6893 67.2948 36.4642 66.1964 36.4642C65.1253 36.4642 64.7596 38.4537 65.2738 39.2619C66.0426 40.47 67.5357 39.9777 67.5357 38.6071C67.5357 34.5369 64.2219 39.5258 66.3601 40.3482C70.2474 41.8433 67.8865 35.1441 66.7321 38.6071" stroke="#8CD6FF" stroke-width="2" stroke-linecap="round"/>
</svg>
